HIERARCHY
ROOT Hips
{
	OFFSET 0.00000 0.00000 0.00000
	CHANNELS 6 Xposition Yposition Zposition Yrotation Zrotation Xrotation 
	JOINT Lumbar
	{
		OFFSET 0 0 0
		CHANNELS 3 Zrotation Xrotation Yrotation
		JOINT Neck
		{
			OFFSET 0.00 0.2701 0.00
			CHANNELS 3 Zrotation Xrotation Yrotation
			End Site
			{
				OFFSET 0.00 0.1379 0.00
			}
		}
		JOINT RightShoulder
		{
			OFFSET 0.0119 0.2289 0.1181
			CHANNELS 3 Zrotation Xrotation Yrotation
			JOINT RightElbow
			{
				OFFSET 0.00 -0.1475 0.00
				CHANNELS 2 Zrotation Yrotation
				JOINT RightWrist
				{
					OFFSET 0.00 -0.1605 0.00
					CHANNELS 2 Zrotation Xrotation
					End Site
					{
						OFFSET 0.0040 -0.1068 0.0006
					}
				}
			}
		}
		JOINT LeftShoulder
		{
			OFFSET 0.0119 0.2289 -0.1181
			CHANNELS 3 Zrotation Xrotation Yrotation
			JOINT LeftElbow
			{
				OFFSET 0.00 -0.1475 0.00
				CHANNELS 2 Zrotation Yrotation
				JOINT LeftWrist
				{
					OFFSET 0.00 -0.1605 0.00
					CHANNELS 2 Zrotation Xrotation
					End Site
					{
						OFFSET 0.0040 -0.1068 -0.0006
					}
				}
			}
		}
	}
	JOINT RightHip
	{
		OFFSET 0.0316 -0.0424 0.0458
		CHANNELS 3 Zrotation Xrotation Yrotation
		JOINT RightKnee
		{
			OFFSET 0.00 -0.2438 0.00
			CHANNELS 1 Zrotation
			JOINT RightAnkle
			{
				OFFSET 0.00 -0.2449 0.00
				CHANNELS 3 Zrotation Xrotation Yrotation
				End Site
				{
					OFFSET 0.1237 -0.0542 0.0051
				}
			}
		}
	}
	JOINT LeftHip
	{
		OFFSET 0.0316 -0.0424 -0.0458
		CHANNELS 3 Zrotation Xrotation Yrotation
		JOINT LeftKnee
		{
			OFFSET 0.00 -0.2438 0.00
			CHANNELS 1 Zrotation
			JOINT LeftAnkle
			{
				OFFSET 0.00 -0.2449 0.00
				CHANNELS 3 Zrotation Xrotation Yrotation
				End Site
				{
					OFFSET 0.1237 -0.0542 -0.0051
				}
			}
		}
	}
}
MOTION
Frames: 27
Frame Time: 0.02
0.97245 0.19939 -1.07868 891.6116 -53.93942 -7.58713 15.37845 0.93234 -41.63396 -24.87022 7.12517 -2.11994 21.50803 -36.01978 1.13244 134.30119 126.27739 -28.3717 -12.83983 15.0664 39.92056 -18.46525 42.46851 -80.38511 2.58681 7.98627 74.80744 13.69368 -46.6958 -4.84279 -31.08844 12.14081 3.62731 63.16891 12.2601 2.12939 -49.64843 -7.37114 1.3171 2.92631
0.96223 0.19839 -1.0802 891.6496 -54.16404 -7.80784 15.23201 0.9658 -41.08947 -24.93461 7.4388 -2.11994 20.89116 -35.60602 0.64794 134.30118 127.37687 -28.80354 -12.81171 12.2237 38.39122 -16.10582 41.85746 -80.40846 2.88555 7.92774 74.43481 13.69368 -46.69582 -5.47679 -30.65956 11.88029 3.47144 63.92196 12.64723 1.23934 -51.83503 -7.88599 1.08176 2.83264
0.95225 0.19807 -1.08171 891.15159 -54.41817 -8.40092 14.99637 0.97094 -40.23943 -25.01324 7.85578 -2.11994 20.29584 -34.92285 0.22673 134.30119 128.74584 -29.26657 -12.67365 9.28233 36.89642 -13.47835 41.0362 -80.46717 3.22584 7.75747 74.22045 13.69369 -46.69588 -6.61031 -30.1776 11.8224 3.48944 65.01624 13.19005 -0.06071 -54.15692 -8.58776 0.8218 2.73407
0.94218 0.19744 -1.08321 890.91494 -54.6625 -8.80798 14.81443 0.98186 -39.53385 -25.07989 8.18511 -2.11994 19.71208 -34.37676 -0.20509 134.30118 129.94942 -29.69057 -12.58977 6.40675 35.38418 -10.96951 40.27663 -80.51311 3.54063 7.62146 73.92151 13.69369 -46.69591 -7.49071 -29.70096 11.6824 3.43084 65.97444 13.67522 -1.13429 -56.39633 -9.20082 0.57567 2.63882
0.932 0.19679 -1.08477 890.60431 -54.89655 -9.28422 14.58129 1.02238 -38.80457 -25.16707 8.68037 -2.11994 19.03891 -33.76489 -0.70927 134.30118 131.32977 -30.22556 -12.48777 3.42984 33.86977 -8.46025 39.64489 -80.54564 3.8905 7.55541 73.66336 13.69369 -46.69596 -8.47341 -29.29795 11.50407 3.35942 66.8593 14.11453 -2.35713 -58.73577 -9.83501 0.31464 2.53739
0.92211 0.19636 -1.08621 890.32183 -55.156 -9.70453 14.43185 0.99479 -38.05151 -25.21664 8.85749 -2.11994 18.55336 -33.22936 -1.0529 134.30118 132.41065 -30.53814 -12.39787 0.64536 32.37341 -5.89747 38.70805 -80.61426 4.17447 7.31886 73.36034 13.69369 -46.69599 -9.36291 -28.73071 11.4527 3.35697 67.97119 14.67969 -3.37547 -60.88159 -10.46621 0.0812 2.4487
0.91293 0.19642 -1.08734 890.22681 -55.49161 -9.89036 14.53617 0.78388 -37.31508 -25.14967 8.12246 -2.11994 18.62457 -32.9479 -0.9228 134.30118 132.55949 -30.18263 -12.3628 -1.58101 30.89891 -3.20615 36.91517 -80.77441 4.26647 6.61643 72.92262 13.69369 -46.69601 -9.8939 -27.72853 11.69779 3.50336 69.67401 15.59104 -3.71174 -62.61304 -11.06136 -0.08238 2.39089
0.90402 0.19669 -1.08833 890.18242 -55.84835 -10.00499 14.72683 0.50571 -36.56416 -25.04623 7.06631 -2.11994 18.87711 -32.75666 -0.64074 134.30118 132.4038 -29.60904 -12.34391 -3.60842 29.44668 -0.48176 34.83639 -80.96939 4.29028 5.75042 72.43045 13.69369 -46.69599 -10.31049 -26.56273 12.06449 3.71372 71.58175 16.61567 -3.83294 -64.11199 -11.64393 -0.21504 2.34709
0.89499 0.19686 -1.08938 890.12813 -56.18673 -10.14588 14.87709 0.25993 -35.81477 -24.96594 6.16293 -2.11994 19.01703 -32.53975 -0.45982 134.30119 132.41503 -29.16465 -12.32218 -5.72748 27.99745 2.19776 32.93173 -81.1481 4.34334 4.97324 71.94815 13.69369 -46.69603 -10.76818 -25.46911 12.37711 3.89413 73.36756 17.56385 -4.06768 -65.62348 -12.219 -0.35293 2.30086
0.88595 0.19706 -1.09048 889.9988 -56.56487 -10.32709 15.03009 0.00594 -35.07519 -24.8588 5.23278 -2.11994 19.28114 -32.25036 -0.14597 134.30119 132.32059 -28.59595 -12.2808 -7.84723 26.4916 5.01918 30.83094 -81.33028 4.4027 4.12974 71.53728 13.69369 -46.69603 -11.29267 -24.38278 12.6894 4.08282 75.29769 18.62419 -4.25359 -67.55269 -12.85333 -0.52748 2.23851
0.877 0.19723 -1.09142 890.04607 -56.86268 -10.40052 15.19792 -0.24715 -34.31679 -24.79815 4.28259 -2.11994 19.33446 -32.13476 -0.0678 134.30119 132.36366 -28.23211 -12.28157 -9.91419 25.11142 7.54137 29.07615 -81.51261 4.43548 3.38862 70.95845 13.69368 -46.69591 -11.63991 -23.24306 13.03172 4.26903 76.95791 19.47424 -4.47993 -68.52991 -13.36269 -0.61986 2.21228
0.86824 0.19729 -1.09199 890.55748 -56.9529 -10.21237 15.39671 -0.47557 -33.50222 -24.88033 3.34292 -2.11994 18.71697 -32.49631 -0.72963 134.30119 132.91816 -28.50204 -12.43072 -11.90648 24.04865 9.29677 28.32712 -81.6903 4.38153 2.95564 69.96837 13.69371 -46.69626 -11.56602 -21.99641 13.39271 4.41313 77.9411 19.72932 -4.89846 -67.15306 -13.50241 -0.48384 2.28605
0.85956 0.19731 -1.09239 891.24783 -56.95872 -9.9148 15.60675 -0.70132 -32.67218 -25.00964 2.39819 -2.11994 17.88883 -33.02708 -1.6251 134.3012 133.60996 -28.98245 -12.61608 -13.84766 23.11595 10.73666 27.9417 -81.86618 4.30781 2.63386 68.80538 13.69365 -46.69563 -11.31074 -20.70159 13.78053 4.55317 78.62493 19.76656 -5.34889 -64.78897 -13.52561 -0.27278 2.3924
0.85085 0.19732 -1.09285 891.86855 -56.98914 -9.65084 15.80359 -0.93239 -31.85585 -25.11346 1.46086 -2.11994 17.18667 -33.46944 -2.37902 134.3012 134.19944 -29.35698 -12.76118 -15.79717 22.13941 12.27433 27.40277 -82.04036 4.26351 2.27221 67.6921 13.69369 -46.69587 -11.10568 -19.42913 14.18346 4.70974 79.3624 19.89265 -5.77582 -62.72808 -13.61345 -0.09547 2.48475
0.84213 0.19745 -1.0934 892.44878 -57.07457 -9.44481 16.03365 -1.15002 -31.01067 -25.23245 0.48198 -2.11994 16.36493 -33.96465 -3.27437 134.30121 134.94515 -29.76819 -13.00519 -17.80322 21.09921 14.00272 26.80096 -82.22617 4.13361 1.8628 66.68935 13.69379 -46.69729 -11.02037 -18.15008 14.49432 4.81541 80.44209 20.06151 -6.27044 -61.25621 -13.63268 0.10212 2.58492
0.83344 0.19732 -1.0937 893.14592 -57.0299 -9.10287 16.20095 -1.39223 -30.22206 -25.33242 -0.39627 -2.11994 15.73765 -34.38718 -3.93582 134.30121 135.40432 -30.15442 -13.05422 -19.68129 20.22219 15.26244 26.42426 -82.38716 4.1744 1.57763 65.42797 13.69335 -46.69226 -10.65977 -16.87401 14.97809 5.0143 80.75155 20.09327 -6.58809 -58.34744 -13.79107 0.24894 2.66291
0.8248 0.19649 -1.09339 894.20183 -56.60398 -8.3273 16.14893 -1.71923 -29.59532 -25.36065 -1.08906 -2.11994 15.71688 -34.58176 -3.86747 134.30121 135.01968 -30.4336 -12.53358 -21.22349 19.7641 15.26945 26.54701 -82.47731 4.72411 1.64258 63.39142 13.69417 -46.70065 -9.44934 -15.63481 16.13884 5.5671 78.86273 19.75365 -6.81964 -51.5326 -14.1493 0.46674 2.79078
0.81618 0.19538 -1.09282 895.35365 -56.05702 -7.4347 16.04018 -2.0679 -29.02622 -25.36976 -1.6614 -2.11994 15.89462 -34.69433 -3.56141 134.3012 134.34703 -30.67923 -11.81977 -22.63797 19.46562 14.82172 26.89092 -82.54287 5.44051 1.82358 61.11966 13.69353 -46.69587 -7.99476 -14.40046 17.43683 6.19707 76.23357 19.2913 -6.80628 -43.3433 -14.68496 0.59319 2.87577
0.80754 0.19437 -1.09232 896.40974 -55.59446 -6.65209 15.98646 -2.39543 -28.42911 -25.39277 -2.22573 -2.11994 15.96895 -34.83472 -3.38252 134.3012 133.82014 -30.93213 -11.2088 -24.10954 19.09384 14.60602 27.15742 -82.62132 6.05947 1.92933 59.02413 13.69229 -46.67799 -6.73904 -13.15048 18.53201 6.72704 74.03902 18.91514 -6.62437 -35.89877 -15.28726 0.60399 2.89856
0.79895 0.19349 -1.09201 897.69429 -55.0085 -5.62672 15.81318 -2.76978 -27.83744 -25.39519 -3.05499 -2.11994 16.09245 -35.02081 -3.13093 134.30119 133.23491 -31.22475 -10.53481 -25.58623 18.7298 14.27408 27.3409 -82.69253 6.76925 2.13222 56.6316 13.69807 -46.74446 -5.10137 -11.94509 20.20763 7.52541 71.4258 18.40421 -7.58426 -27.90088 -15.29018 1.25898 3.25556
0.79025 0.19228 -1.09125 898.52087 -54.6474 -5.07945 15.87093 -3.05276 -27.25042 -25.43562 -3.30421 -2.11994 16.16256 -35.0902 -2.97121 134.30119 132.70125 -31.42542 -9.94668 -27.01881 18.38591 14.07805 27.7426 -82.77295 7.32972 2.16101 54.80183 13.68676 -46.62733 -4.20921 -10.66155 20.72346 7.79013 69.50509 18.14622 -6.1584 -20.75658 -16.55198 0.5771 2.92065
0.78124 0.19028 -1.08941 898.08001 -54.97679 -5.89203 16.61787 -3.06913 -26.64581 -25.58231 -1.97742 -2.11994 16.04473 -34.85386 -3.12265 134.30121 132.37851 -31.36699 -9.63501 -28.39238 18.05833 14.38865 28.71326 -82.88557 7.43706 1.66234 54.60541 13.64646 -46.04825 -5.38895 -9.04896 17.85649 6.50202 69.74373 18.62972 2.23586 -16.18653 -21.53397 -4.01082 0.55795
0.7721 0.18796 -1.08712 897.17033 -55.53008 -7.1881 17.59217 -2.99419 -26.04803 -25.76774 -0.07289 -2.11994 15.86596 -34.502 -3.37326 134.30123 132.11745 -31.21867 -9.41791 -29.71942 17.74553 14.8488 29.89014 -83.00839 7.38838 0.98735 54.98099 13.5854 -45.27775 -7.33661 -7.37741 13.84489 4.68567 70.69368 19.37034 12.94161 -12.54994 -27.72473 -9.89659 -2.4759
0.76302 0.18575 -1.08499 896.46064 -55.95455 -8.25641 18.43787 -2.96736 -25.45661 -25.93811 1.56629 -2.11994 15.71076 -34.20539 -3.57834 134.30125 131.82863 -31.1192 -9.16228 -31.04855 17.42467 15.22989 30.95759 -83.12578 7.4114 0.40451 55.08038 13.52253 -44.56659 -8.96454 -5.8083 10.45323 3.15048 71.27661 19.98618 22.29905 -8.56942 -33.17282 -15.03398 -5.11888
0.75394 0.18369 -1.08308 895.80896 -56.48719 -9.35535 19.38852 -2.91458 -24.82306 -26.0994 3.22644 -2.11994 15.57939 -33.89733 -3.77915 134.30127 131.52818 -30.98479 -8.88038 -32.45746 17.11257 15.64488 32.09994 -83.24477 7.43734 -0.22506 55.23711 13.5083 -43.96883 -10.46184 -3.92543 6.64491 1.44363 72.01962 20.63237 32.91808 -4.20238 -39.43885 -20.84628 -8.12582
0.74484 0.18125 -1.08058 894.92463 -56.85156 -10.5058 20.17505 -2.89234 -24.28336 -26.28617 4.97229 -2.11994 15.38184 -33.58309 -4.01309 134.30128 131.27101 -30.90235 -8.67916 -33.68602 16.78683 16.02682 33.13154 -83.3643 7.41737 -0.80055 55.41696 13.38633 -43.0932 -12.41487 -2.67516 3.43123 -0.03109 72.60611 21.2764 41.46062 -0.87882 -44.29154 -25.55692 -10.53352
0.73565 0.17776 -1.07658 893.50559 -56.67718 -11.68938 20.45385 -2.9896 -23.95591 -26.55844 6.86632 -2.11994 15.01163 -33.31163 -4.33537 134.30128 131.114 -30.98398 -8.67011 -34.46797 16.39495 16.31575 33.81308 -83.47877 7.31488 -1.18524 55.49183 12.98512 -41.46545 -15.45682 -3.2464 2.13555 -0.74463 72.60462 21.86562 43.65208 -0.22984 -44.89302 -26.93186 -11.12128
